<?xml version="1.0" encoding="UTF-8"?>
<svg xmlns="http://www.w3.org/2000/svg" xmlns:xlink="http://www.w3.org/1999/xlink" width="0" height="0">
   <defs>
   	<symbol viewBox='0 0 512 512' fill='currentColor' id='icons-sprite-facebook'>
			<path d='M512 256C512 114.6 397.4 0 256 0S0 114.6 0 256C0 376 82.7 476.8 194.2 504.5V334.2H141.4V256h52.8V222.3c0-87.1 39.4-127.5 125-127.5c16.2 0 44.2 3.2 55.7 6.4V172c-6-.6-16.5-1-29.6-1c-42 0-58.2 15.9-58.2 57.2V256h83.6l-14.4 78.2H287V510.1C413.8 494.8 512 386.9 512 256h0z' />
		</symbol>
   	<symbol viewBox='0 0 24 24' fill='currentColor' id='icons-sprite-telegram'>
			<path d='M16.114,9.291c.552-.552,1.1-1.84-1.2-.276-3.268,2.255-6.489,4.372-6.489,4.372a2.7,2.7,0,0,1-2.117.046c-1.38-.414-2.991-.966-2.991-.966s-1.1-.691.783-1.427c0,0,7.961-3.267,10.722-4.418,1.058-.46,4.647-1.932,4.647-1.932s1.657-.645,1.519.92c-.046.644-.414,2.9-.782,5.338-.553,3.451-1.151,7.225-1.151,7.225s-.092,1.058-.874,1.242a3.787,3.787,0,0,1-2.3-.828c-.184-.138-3.451-2.209-4.648-3.221a.872.872,0,0,1,.046-1.473C12.939,12.375,14.918,10.488,16.114,9.291Z' />
		</symbol>
   	<symbol viewBox='0 0 448 512' fill='currentColor' id='icons-sprite-instagram'>
			<path d='M224.1 141c-63.6 0-114.9 51.3-114.9 114.9s51.3 114.9 114.9 114.9S339 319.5 339 255.9 287.7 141 224.1 141zm0 189.6c-41.1 0-74.7-33.5-74.7-74.7s33.5-74.7 74.7-74.7 74.7 33.5 74.7 74.7-33.6 74.7-74.7 74.7zm146.4-194.3c0 14.9-12 26.8-26.8 26.8-14.9 0-26.8-12-26.8-26.8s12-26.8 26.8-26.8 26.8 12 26.8 26.8zm76.1 27.2c-1.7-35.9-9.9-67.7-36.2-93.9-26.2-26.2-58-34.4-93.9-36.2-37-2.1-147.9-2.1-184.9 0-35.8 1.7-67.6 9.9-93.9 36.1s-34.4 58-36.2 93.9c-2.1 37-2.1 147.9 0 184.9 1.7 35.9 9.9 67.7 36.2 93.9s58 34.4 93.9 36.2c37 2.1 147.9 2.1 184.9 0 35.9-1.7 67.7-9.9 93.9-36.2 26.2-26.2 34.4-58 36.2-93.9 2.1-37 2.1-147.8 0-184.8zM398.8 388c-7.8 19.6-22.9 34.7-42.6 42.6-29.5 11.7-99.5 9-132.1 9s-102.7 2.6-132.1-9c-19.6-7.8-34.7-22.9-42.6-42.6-11.7-29.5-9-99.5-9-132.1s-2.6-102.7 9-132.1c7.8-19.6 22.9-34.7 42.6-42.6 29.5-11.7 99.5-9 132.1-9s102.7-2.6 132.1 9c19.6 7.8 34.7 22.9 42.6 42.6 11.7 29.5 9 99.5 9 132.1s2.7 102.7-9 132.1z' />
		</symbol>
   	<symbol viewBox='0 0 512 512' fill='currentColor' id='icons-sprite-email'>
			<path d='M48 64C21.5 64 0 85.5 0 112c0 15.1 7.1 29.3 19.2 38.4L236.8 313.6c11.4 8.5 27 8.5 38.4 0L492.8 150.4c12.1-9.1 19.2-23.3 19.2-38.4c0-26.5-21.5-48-48-48H48zM0 176V384c0 35.3 28.7 64 64 64H448c35.3 0 64-28.7 64-64V176L294.4 339.2c-22.8 17.1-54 17.1-76.8 0L0 176z' />
		</symbol>
   	<symbol viewBox='0 0 384 512' fill='currentColor' id='icons-sprite-location'>
			<path d='M215.7 499.2C267 435 384 279.4 384 192C384 86 298 0 192 0S0 86 0 192c0 87.4 117 243 168.3 307.2c12.3 15.3 35.1 15.3 47.4 0zM192 128a64 64 0 1 1 0 128 64 64 0 1 1 0-128z' />
		</symbol>
   	<symbol viewBox='-100 -100 700 700' fill='currentColor' id='icons-sprite-phone-call'>
			<path d='M280 0C408.1 0 512 103.9 512 232c0 13.3-10.7 24-24 24s-24-10.7-24-24c0-101.6-82.4-184-184-184c-13.3 0-24-10.7-24-24s10.7-24 24-24zm8 192a32 32 0 1 1 0 64 32 32 0 1 1 0-64zm-32-72c0-13.3 10.7-24 24-24c75.1 0 136 60.9 136 136c0 13.3-10.7 24-24 24s-24-10.7-24-24c0-48.6-39.4-88-88-88c-13.3 0-24-10.7-24-24zM117.5 1.4c19.4-5.3 39.7 4.6 47.4 23.2l40 96c6.8 16.3 2.1 35.2-11.6 46.3L144 207.3c33.3 70.4 90.3 127.4 160.7 160.7L345 318.7c11.2-13.7 30-18.4 46.3-11.6l96 40c18.6 7.7 28.5 28 23.2 47.4l-24 88C481.8 499.9 466 512 448 512C200.6 512 0 311.4 0 64C0 46 12.1 30.2 29.5 25.4l88-24z' />
		</symbol>
   	<symbol viewBox='-100 -100 700 700' fill='currentColor' id='icons-sprite-message'>
			<path d='M256 448c141.4 0 256-93.1 256-208S397.4 32 256 32S0 125.1 0 240c0 45.1 17.7 86.8 47.7 120.9c-1.9 24.5-11.4 46.3-21.4 62.9c-5.5 9.2-11.1 16.6-15.2 21.6c-2.1 2.5-3.7 4.4-4.9 5.7c-.6 .6-1 1.1-1.3 1.4l-.3 .3 0 0 0 0 0 0 0 0c-4.6 4.6-5.9 11.4-3.4 17.4c2.5 6 8.3 9.9 14.8 9.9c28.7 0 57.6-8.9 81.6-19.3c22.9-10 42.4-21.9 54.3-30.6c31.8 11.5 67 17.9 104.1 17.9zM128 208a32 32 0 1 1 0 64 32 32 0 1 1 0-64zm128 0a32 32 0 1 1 0 64 32 32 0 1 1 0-64zm96 32a32 32 0 1 1 64 0 32 32 0 1 1 -64 0z' />
		</symbol>
   	<symbol id='icons-sprite-phone' viewBox='0 0 512 512' fill='currentColor'>
			<path d='M164.9 24.6c-7.7-18.6-28-28.5-47.4-23.2l-88 24C12.1 30.2 0 46 0 64C0 311.4 200.6 512 448 512c18 0 33.8-12.1 38.6-29.5l24-88c5.3-19.4-4.6-39.7-23.2-47.4l-96-40c-16.3-6.8-35.2-2.1-46.3 11.6L304.7 368C234.3 334.7 177.3 277.7 144 207.3L193.3 167c13.7-11.2 18.4-30 11.6-46.3l-40-96z' />
		</symbol>
   	<symbol id='icons-sprite-chevron-right' viewBox='0 0 185.343 185.343' fill='currentColor'>
			<path d='M51.707,185.343c-2.741,0-5.493-1.044-7.593-3.149c-4.194-4.194-4.194-10.981,0-15.175 l74.352-74.347L44.114,18.32c-4.194-4.194-4.194-10.987,0-15.175c4.194-4.194,10.987-4.194,15.18,0l81.934,81.934 c4.194,4.194,4.194,10.987,0,15.175l-81.934,81.939C57.201,184.293,54.454,185.343,51.707,185.343z'></path>
		</symbol>
   	<symbol id='icons-sprite-shield-check' viewBox='0 0 16 16' fill='currentColor'>
			<path d="M5.338 1.59a61.44 61.44 0 0 0-2.837.856.481.481 0 0 0-.328.39c-.554 4.157.726 7.19 2.253 9.188a10.725 10.725 0 0 0 2.287 2.233c.346.244.652.42.893.533.12.057.218.095.293.118a.55.55 0 0 0 .101.025.615.615 0 0 0 .1-.025c.076-.023.174-.061.294-.118.24-.113.547-.29.893-.533a10.726 10.726 0 0 0 2.287-2.233c1.527-1.997 2.807-5.031 2.253-9.188a.48.48 0 0 0-.328-.39c-.651-.213-1.75-.56-2.837-.855C9.552 1.29 8.531 1.067 8 1.067c-.53 0-1.552.223-2.662.524zM5.072.56C6.157.265 7.31 0 8 0s1.843.265 2.928.56c1.11.3 2.229.655 2.887.87a1.54 1.54 0 0 1 1.044 1.262c.596 4.477-.787 7.795-2.465 9.99a11.775 11.775 0 0 1-2.517 2.453 7.159 7.159 0 0 1-1.048.625c-.28.132-.581.24-.829.24s-.548-.108-.829-.24a7.158 7.158 0 0 1-1.048-.625 11.777 11.777 0 0 1-2.517-2.453C1.928 10.487.545 7.169 1.141 2.692A1.54 1.54 0 0 1 2.185 1.43 62.456 62.456 0 0 1 5.072.56z"/> <path d="M10.854 5.146a.5.5 0 0 1 0 .708l-3 3a.5.5 0 0 1-.708 0l-1.5-1.5a.5.5 0 1 1 .708-.708L7.5 7.793l2.646-2.647a.5.5 0 0 1 .708 0z"/>
		</symbol>
   	<symbol id='icons-sprite-gear' viewBox='0 0 32 32' fill='currentColor'>
			<path d='M29 12.256h-1.88c-0.198-0.585-0.405-1.072-0.643-1.541l0.031 0.067 1.338-1.324c0.35-0.3 0.57-0.742 0.57-1.236 0-0.406-0.149-0.778-0.396-1.063l0.002 0.002-3.178-3.178c-0.283-0.246-0.654-0.395-1.061-0.395-0.494 0-0.937 0.221-1.234 0.57l-0.002 0.002-1.332 1.33c-0.402-0.206-0.888-0.413-1.39-0.586l-0.082-0.025 0.009-1.88c0.003-0.040 0.005-0.086 0.005-0.133 0-0.854-0.66-1.554-1.498-1.617l-0.005-0h-4.496c-0.844 0.063-1.505 0.763-1.505 1.617 0 0.047 0.002 0.093 0.006 0.139l-0-0.006v1.879c-0.585 0.198-1.071 0.404-1.54 0.641l0.067-0.031-1.324-1.336c-0.299-0.352-0.742-0.573-1.236-0.573-0.407 0-0.778 0.15-1.063 0.397l0.002-0.002-3.179 3.179c-0.246 0.283-0.396 0.655-0.396 1.061 0 0.494 0.221 0.937 0.57 1.234l0.002 0.002 1.329 1.329c-0.207 0.403-0.414 0.891-0.587 1.395l-0.024 0.082-1.88-0.009c-0.040-0.003-0.086-0.005-0.133-0.005-0.854 0-1.554 0.661-1.617 1.499l-0 0.005v4.495c0.062 0.844 0.763 1.505 1.617 1.505 0.047 0 0.093-0.002 0.139-0.006l-0.006 0h1.88c0.198 0.585 0.404 1.072 0.642 1.541l-0.030-0.066-1.335 1.32c-0.351 0.3-0.572 0.744-0.572 1.239 0 0.407 0.149 0.779 0.396 1.064l-0.002-0.002 3.179 3.178c0.249 0.246 0.591 0.399 0.97 0.399 0.007 0 0.014-0 0.021-0h-0.001c0.515-0.013 0.977-0.231 1.308-0.576l0.001-0.001 1.33-1.33c0.403 0.207 0.891 0.414 1.395 0.587l0.082 0.025-0.009 1.878c-0.003 0.040-0.005 0.086-0.005 0.132 0 0.854 0.661 1.555 1.499 1.617l0.005 0h4.496c0.843-0.064 1.503-0.763 1.503-1.617 0-0.047-0.002-0.093-0.006-0.139l0 0.006v-1.881c0.585-0.198 1.073-0.405 1.543-0.643l-0.067 0.031 1.321 1.333c0.332 0.344 0.793 0.562 1.304 0.574l0.002 0h0.002c0.006 0 0.013 0 0.019 0 0.378 0 0.72-0.151 0.971-0.395l3.177-3.177c0.244-0.249 0.395-0.591 0.395-0.968 0-0.009-0-0.017-0-0.026l0 0.001c-0.012-0.513-0.229-0.973-0.572-1.304l-0.001-0.001-1.331-1.332c0.206-0.401 0.412-0.887 0.586-1.389l0.025-0.083 1.879 0.009c0.040 0.003 0.086 0.005 0.132 0.005 0.855 0 1.555-0.661 1.617-1.5l0-0.005v-4.495c-0.063-0.844-0.763-1.504-1.618-1.504-0.047 0-0.093 0.002-0.138 0.006l0.006-0zM29.004 18.25l-2.416-0.012c-0.020 0-0.037 0.010-0.056 0.011-0.198 0.024-0.372 0.115-0.501 0.249l-0 0c-0.055 0.072-0.103 0.153-0.141 0.24l-0.003 0.008c-0.005 0.014-0.016 0.024-0.020 0.039-0.24 0.844-0.553 1.579-0.944 2.264l0.026-0.049c-0.054 0.1-0.086 0.218-0.086 0.344 0 0.001 0 0.003 0 0.004v-0c-0 0.016 0.003 0.028 0.004 0.045 0.006 0.187 0.080 0.355 0.199 0.481l-0-0 0.009 0.023 1.707 1.709c0.109 0.109 0.137 0.215 0.176 0.176l-3.102 3.133c-0.099-0.013-0.186-0.061-0.248-0.13l-0-0-1.697-1.713c-0.008-0.009-0.022-0.005-0.030-0.013-0.121-0.112-0.28-0.183-0.456-0.193l-0.002-0c-0.020-0.003-0.044-0.005-0.068-0.006l-0.001-0c-0.125 0-0.243 0.032-0.345 0.088l0.004-0.002c-0.636 0.362-1.373 0.676-2.146 0.903l-0.074 0.019c-0.015 0.004-0.025 0.015-0.039 0.020-0.096 0.042-0.179 0.092-0.255 0.149l0.003-0.002c-0.035 0.034-0.066 0.071-0.093 0.11l-0.002 0.002c-0.027 0.033-0.053 0.070-0.075 0.11l-0.002 0.004c-0.033 0.081-0.059 0.175-0.073 0.274l-0.001 0.007c-0.001 0.016-0.010 0.031-0.010 0.047v2.412c0 0.15-0.055 0.248 0 0.25l-4.41 0.023c-0.052-0.067-0.084-0.153-0.084-0.246 0-0.008 0-0.016 0.001-0.024l-0 0.001 0.012-2.412c0-0.017-0.008-0.032-0.010-0.048-0.005-0.053-0.015-0.102-0.030-0.149l0.001 0.005c-0.012-0.053-0.028-0.1-0.048-0.145l0.002 0.005c-0.052-0.086-0.109-0.16-0.173-0.227l0 0c-0.029-0.024-0.062-0.046-0.096-0.066l-0.004-0.002c-0.044-0.030-0.093-0.056-0.146-0.076l-0.005-0.002c-0.014-0.005-0.024-0.016-0.039-0.020-0.847-0.241-1.585-0.554-2.272-0.944l0.051 0.026c-0.099-0.054-0.216-0.086-0.341-0.086h-0c-0.022-0.001-0.040 0.004-0.062 0.005-0.18 0.008-0.342 0.080-0.465 0.193l0.001-0c-0.008 0.008-0.021 0.004-0.029 0.012l-1.705 1.705c-0.107 0.107-0.216 0.139-0.178 0.178l-3.134-3.101c0.012-0.1 0.060-0.187 0.13-0.25l0-0 1.714-1.695 0.011-0.026c0.115-0.123 0.189-0.286 0.197-0.466l0-0.002c0.001-0.021 0.005-0.037 0.005-0.058 0-0.001 0-0.002 0-0.003 0-0.126-0.032-0.245-0.088-0.348l0.002 0.004c-0.365-0.636-0.679-1.371-0.903-2.145l-0.018-0.072c-0.004-0.015-0.016-0.026-0.021-0.041-0.042-0.094-0.090-0.176-0.146-0.25l0.002 0.003c-0.065-0.061-0.136-0.117-0.212-0.165l-0.006-0.003c-0.051-0.025-0.109-0.045-0.171-0.057l-0.005-0.001c-0.029-0.009-0.065-0.016-0.102-0.021l-0.004-0c-0.020-0.002-0.037-0.012-0.058-0.012h-2.412c-0.152 0.002-0.248-0.055-0.25-0.002l-0.022-4.409c0.067-0.052 0.151-0.084 0.244-0.084 0.009 0 0.017 0 0.026 0.001l-0.001-0 2.416 0.012c0.152-0.004 0.292-0.054 0.407-0.136l-0.002 0.002c0.024-0.014 0.044-0.028 0.064-0.043l-0.002 0.001c0.109-0.088 0.191-0.206 0.235-0.341l0.001-0.005c0.003-0.010 0.014-0.014 0.017-0.025 0.242-0.847 0.555-1.583 0.946-2.27l-0.026 0.050c0.054-0.1 0.086-0.218 0.086-0.344 0-0.001 0-0.001 0-0.002v0c0.001-0.019-0.003-0.033-0.004-0.052-0.007-0.184-0.080-0.35-0.197-0.475l0 0-0.010-0.024-1.705-1.705c-0.108-0.11-0.142-0.221-0.176-0.178l3.102-3.134c0.101 0.008 0.189 0.058 0.248 0.131l0.001 0.001 1.697 1.713c0.018 0.018 0.046 0.011 0.065 0.027 0.125 0.121 0.295 0.196 0.483 0.196 0.13 0 0.251-0.036 0.355-0.098l-0.003 0.002c0.636-0.364 1.372-0.677 2.145-0.902l0.072-0.018c0.014-0.004 0.024-0.015 0.038-0.019 0.057-0.021 0.105-0.047 0.151-0.077l-0.003 0.002c0.163-0.090 0.281-0.244 0.321-0.427l0.001-0.004c0.014-0.043 0.025-0.093 0.030-0.145l0-0.003c0.001-0.016 0.009-0.030 0.009-0.046v-2.412c0-0.151 0.056-0.249 0.001-0.25l4.41-0.023c0.052 0.067 0.083 0.152 0.083 0.245 0 0.009-0 0.017-0.001 0.026l0-0.001-0.012 2.412c-0 0.016 0.008 0.030 0.009 0.047 0.005 0.055 0.015 0.106 0.031 0.155l-0.001-0.005c0.071 0.234 0.243 0.419 0.464 0.506l0.005 0.002c0.014 0.005 0.025 0.016 0.039 0.020 0.845 0.242 1.58 0.555 2.265 0.945l-0.050-0.026c0.105 0.060 0.231 0.096 0.366 0.096 0 0 0.001 0 0.001 0h-0c0.183-0.008 0.347-0.082 0.471-0.198l-0 0c0.017-0.015 0.043-0.008 0.059-0.024l1.709-1.705c0.105-0.106 0.213-0.137 0.176-0.176l3.133 3.102c-0.012 0.1-0.059 0.186-0.129 0.249l-0 0-1.715 1.697-0.011 0.026c-0.116 0.123-0.19 0.287-0.198 0.468l-0 0.002c-0.001 0.020-0.005 0.036-0.005 0.056 0 0.001 0 0.002 0 0.003 0 0.126 0.032 0.245 0.088 0.348l-0.002-0.004c0.365 0.636 0.679 1.371 0.902 2.144l0.018 0.071c0.003 0.012 0.016 0.017 0.019 0.028 0.046 0.137 0.127 0.253 0.232 0.339l0.001 0.001c0.019 0.015 0.041 0.030 0.063 0.043l0.003 0.002c0.112 0.080 0.252 0.13 0.402 0.134l0.001 0h2.412c0.152-0.001 0.248 0.057 0.25 0.001l0.021 4.409c-0.065 0.053-0.149 0.085-0.24 0.085-0.010 0-0.019-0-0.029-0.001l0.001 0zM16 11.25c-2.623 0-4.75 2.127-4.75 4.75s2.127 4.75 4.75 4.75c2.623 0 4.75-2.127 4.75-4.75v0c-0.003-2.622-2.128-4.747-4.75-4.75h-0zM16 19.25c-1.795 0-3.25-1.455-3.25-3.25s1.455-3.25 3.25-3.25c1.795 0 3.25 1.455 3.25 3.25v0c-0.002 1.794-1.456 3.248-3.25 3.25h-0z'></path>
		</symbol>
   	<symbol id='icons-sprite-search' viewBox='0 0 488.4 488.4' fill='currentColor'>
			<path d='M0,203.25c0,112.1,91.2,203.2,203.2,203.2c51.6,0,98.8-19.4,134.7-51.2l129.5,129.5c2.4,2.4,5.5,3.6,8.7,3.6 s6.3-1.2,8.7-3.6c4.8-4.8,4.8-12.5,0-17.3l-129.6-129.5c31.8-35.9,51.2-83,51.2-134.7c0-112.1-91.2-203.2-203.2-203.2 S0,91.15,0,203.25z M381.9,203.25c0,98.5-80.2,178.7-178.7,178.7s-178.7-80.2-178.7-178.7s80.2-178.7,178.7-178.7 S381.9,104.65,381.9,203.25z' />
		</symbol>
   	<symbol id='icons-sprite-send-message' viewBox='0 0 256 256' fill='currentColor'>
			<g transform='translate(1.4065934065934016 1.4065934065934016) scale(2.81 2.81)'>
				<path d='M 45.073 76.382 c -0.904 0 -1.753 -0.353 -2.392 -0.991 L 14.609 47.319 c -1.318 -1.319 -1.318 -3.465 0 -4.783 L 56.155 0.99 c 1.318 -1.318 3.465 -1.318 4.783 0 L 89.01 29.061 c 1.318 1.319 1.318 3.464 0 4.783 L 47.464 75.391 C 46.825 76.029 45.976 76.382 45.073 76.382 z M 58.547 2 c -0.354 0 -0.708 0.135 -0.978 0.404 L 16.023 43.95 c -0.539 0.539 -0.539 1.416 0 1.955 l 28.072 28.071 c 0.522 0.522 1.431 0.523 1.955 0 L 87.596 32.43 c 0.538 -0.539 0.538 -1.416 0 -1.955 L 59.524 2.404 C 59.255 2.135 58.901 2 58.547 2 z' transform=' matrix(1 0 0 1 0 0)' strokeLinecap='round' />
				<path d='M 82.798 30.156 l -23.341 1.075 l 0.614 -23.823 c 0.014 -0.552 -0.422 -1.011 -0.975 -1.025 c -0.543 -0.03 -1.011 0.422 -1.025 0.974 L 57.138 43.52 l -36.163 0.932 c -0.552 0.014 -0.988 0.473 -0.974 1.025 c 0.014 0.543 0.458 0.975 0.999 0.975 c 0.009 0 0.018 -0.001 0.026 -0.001 l 23.768 -0.613 l -1.078 23.399 c -0.025 0.552 0.401 1.02 0.953 1.045 c 0.016 0.001 0.031 0.001 0.047 0.001 c 0.531 0 0.973 -0.418 0.998 -0.954 l 1.084 -23.542 l 11.34 -0.292 c 0.532 -0.014 0.961 -0.441 0.975 -0.974 l 0.291 -11.286 l 23.484 -1.082 c 0.552 -0.025 0.979 -0.493 0.953 -1.045 C 83.817 30.557 83.342 30.139 82.798 30.156 z' transform=' matrix(1 0 0 1 0 0) ' strokeLinecap='round' />
				<path d='M 1.001 89.999 c -0.256 0 -0.512 -0.098 -0.707 -0.293 c -0.391 -0.391 -0.391 -1.023 0 -1.414 l 21.453 -21.453 c 0.391 -0.391 1.023 -0.391 1.414 0 s 0.391 1.023 0 1.414 L 1.708 89.706 C 1.512 89.901 1.257 89.999 1.001 89.999 z' transform=' matrix(1 0 0 1 0 0) ' strokeLinecap='round' />
				<path d='M 2.26 69.806 c -0.256 0 -0.512 -0.098 -0.707 -0.293 c -0.391 -0.391 -0.391 -1.023 0 -1.414 l 10.727 -10.727 c 0.391 -0.391 1.023 -0.391 1.414 0 s 0.391 1.023 0 1.414 L 2.967 69.513 C 2.771 69.708 2.515 69.806 2.26 69.806 z' transform=' matrix(1 0 0 1 0 0) ' strokeLinecap='round' />
				<path d='M 21.195 88.74 c -0.256 0 -0.512 -0.098 -0.707 -0.293 c -0.391 -0.391 -0.391 -1.023 0 -1.414 l 10.727 -10.727 c 0.391 -0.391 1.023 -0.391 1.414 0 s 0.391 1.023 0 1.414 L 21.902 88.447 C 21.706 88.643 21.45 88.74 21.195 88.74 z' transform=' matrix(1 0 0 1 0 0) ' strokeLinecap='round' />
			</g>
		</symbol>
   	<symbol id='icons-sprite-clock' viewBox='0 0 100 100' fill='currentColor'>
			<g>
				<rect x="47.466" y="13.137" width="5.069" height="8.608"/>
				<rect x="14.295" y="46.307" width="8.61" height="5.069"/>
				<rect x="47.466" y="75.941" width="5.069" height="8.605"/>
				<rect x="77.097" y="46.307" width="8.611" height="5.069"/>
			</g>
			<circle cx="50" cy="48.841" r="4.833"/>
			<path d="M47.815,43.426l-9.526-13.93c-0.484-0.925-1.627-1.282-2.554-0.797c-0.925,0.485-1.282,1.628-0.797,2.555l9.871,14.916   C45.448,44.931,46.515,43.952,47.815,43.426z"/>
			<path d="M59.48,38.756l-6.139,5.297c1.045,0.729,1.84,1.788,2.23,3.028l6.494-5.562c0.764-0.713,0.803-1.91,0.09-2.674   C61.441,38.083,60.244,38.044,59.48,38.756z"/>
			<path d="M50,1.939c-25.903,0-46.902,20.999-46.902,46.902c0,25.904,20.999,46.902,46.902,46.902   c25.904,0,46.904-20.998,46.904-46.902C96.904,22.938,75.904,1.939,50,1.939z M50,88.078c-21.67,0-39.236-17.567-39.236-39.237   C10.764,27.172,28.33,9.605,50,9.605c21.669,0,39.236,17.567,39.236,39.236C89.236,70.511,71.67,88.078,50,88.078z"/>
			<path d="M16.091,89.106c-2.049,2.049-2.049,5.369,0,7.419c2.048,2.047,5.368,2.047,7.417,0l3.562-3.562   c-3.186-1.659-6.173-3.647-8.908-5.929L16.091,89.106z"/>
			<path d="M81.836,87.034c-2.734,2.282-5.721,4.27-8.906,5.929l3.562,3.562c2.049,2.047,5.369,2.047,7.418,0   c2.047-2.05,2.047-5.37,0-7.419L81.836,87.034z"/>
			<path d="M24.792,5.983c-1.976-0.789-4.125-1.235-6.383-1.235c-9.526,0-17.248,7.721-17.248,17.248c0,3.249,0.915,6.277,2.476,8.872   C7.704,20.384,15.216,11.627,24.792,5.983z"/>
			<path d="M96.363,30.867c1.562-2.594,2.477-5.623,2.477-8.872c0-9.527-7.723-17.248-17.248-17.248c-2.258,0-4.406,0.446-6.383,1.235   C84.785,11.626,92.297,20.384,96.363,30.867z"/>
		</symbol>
   	<symbol id='icons-sprite-telephone' viewBox='0 0 122.9 98.9' fill='currentColor'>
			<path d='M109,98.9H13.7v-14c0.5-16.3,14.9-28.7,23.6-42.8V29.7h14.5v8.9h19.5v-8.9h14.5v12.4 C95.2,57.2,109,67,109,84.7V98.9L109,98.9z M122.5,42.1c0-2.2,0.4-4.4,0.1-6.8c-10.7,3.5-21.1,2.5-31.3-3.1 c-0.4,3.8,0.2,7.2,1.6,10.4C96.5,50.6,122.2,53.3,122.5,42.1L122.5,42.1z M0.3,42.1c0-2.2-0.4-4.4-0.1-6.8 c10.7,3.5,21.1,2.5,31.3-3.1c0.4,3.8-0.2,7.2-1.6,10.4C26.3,50.6,0.5,53.3,0.3,42.1L0.3,42.1z M0,31.9C8.6-8.2,115.4-13,122.9,32 c-10.4,2.9-21,1.2-31.6-3.6c0.3-2.1-0.2-3.8-1.3-5.2c-6.3-7.9-51.4-8.2-57.2,0.3c-0.9,1.3-1.3,2.9-1.2,4.7 C21.1,34.6,10.5,36.1,0,31.9L0,31.9z M47.2,47.7c2.4,0,4.3,1.9,4.3,4.3c0,2.4-1.9,4.3-4.3,4.3c-2.4,0-4.3-1.9-4.3-4.3 C43,49.7,44.9,47.7,47.2,47.7L47.2,47.7z M74.8,71.7c2.4,0,4.3,1.9,4.3,4.3c0,2.4-1.9,4.3-4.3,4.3c-2.4,0-4.3-1.9-4.3-4.3 C70.5,73.7,72.4,71.7,74.8,71.7L74.8,71.7z M61,71.7c2.4,0,4.3,1.9,4.3,4.3c0,2.4-1.9,4.3-4.3,4.3c-2.4,0-4.3-1.9-4.3-4.3 C56.7,73.7,58.6,71.7,61,71.7L61,71.7z M47.2,71.7c2.4,0,4.3,1.9,4.3,4.3c0,2.4-1.9,4.3-4.3,4.3c-2.4,0-4.3-1.9-4.3-4.3 C43,73.7,44.9,71.7,47.2,71.7L47.2,71.7z M74.8,59.7c2.4,0,4.3,1.9,4.3,4.3c0,2.4-1.9,4.3-4.3,4.3c-2.4,0-4.3-1.9-4.3-4.3 C70.5,61.7,72.4,59.7,74.8,59.7L74.8,59.7z M61,59.7c2.4,0,4.3,1.9,4.3,4.3c0,2.4-1.9,4.3-4.3,4.3c-2.4,0-4.3-1.9-4.3-4.3 C56.7,61.7,58.6,59.7,61,59.7L61,59.7z M47.2,59.7c2.4,0,4.3,1.9,4.3,4.3c0,2.4-1.9,4.3-4.3,4.3c-2.4,0-4.3-1.9-4.3-4.3 C43,61.7,44.9,59.7,47.2,59.7L47.2,59.7z M74.8,47.7c2.4,0,4.3,1.9,4.3,4.3c0,2.4-1.9,4.3-4.3,4.3c-2.4,0-4.3-1.9-4.3-4.3 C70.5,49.7,72.4,47.7,74.8,47.7L74.8,47.7z M61,47.7c2.4,0,4.3,1.9,4.3,4.3c0,2.4-1.9,4.3-4.3,4.3c-2.4,0-4.3-1.9-4.3-4.3 C56.7,49.7,58.6,47.7,61,47.7L61,47.7z' />
		</symbol>
   	<symbol id='icons-sprite-contacts' viewBox='0 0 512 512' fill='currentColor'>
			<path d="M96 0C60.7 0 32 28.7 32 64V448c0 35.3 28.7 64 64 64H384c35.3 0 64-28.7 64-64V64c0-35.3-28.7-64-64-64H96zM208 288h64c44.2 0 80 35.8 80 80c0 8.8-7.2 16-16 16H144c-8.8 0-16-7.2-16-16c0-44.2 35.8-80 80-80zm-32-96a64 64 0 1 1 128 0 64 64 0 1 1 -128 0zM512 80c0-8.8-7.2-16-16-16s-16 7.2-16 16v64c0 8.8 7.2 16 16 16s16-7.2 16-16V80zM496 192c-8.8 0-16 7.2-16 16v64c0 8.8 7.2 16 16 16s16-7.2 16-16V208c0-8.8-7.2-16-16-16zm16 144c0-8.8-7.2-16-16-16s-16 7.2-16 16v64c0 8.8 7.2 16 16 16s16-7.2 16-16V336z"/>
		</symbol>

   </defs>
</svg>